<?xml version="1.0" encoding="utf-8"?>
<!-- Generator: Adobe Illustrator 27.2.0, SVG Export Plug-In . SVG Version: 6.00 Build 0)  -->
<svg version="1.1" id="Layer_1" xmlns="http://www.w3.org/2000/svg" xmlns:xlink="http://www.w3.org/1999/xlink" x="0px" y="0px"
	 viewBox="0 0 512 512" style="enable-background:new 0 0 512 512;" xml:space="preserve">
<style type="text/css">
	.st0{fill-rule:evenodd;clip-rule:evenodd;fill:#E25A1C;}
	.st1{fill-rule:evenodd;clip-rule:evenodd;fill:#39373C;}
	.st2{fill:#39373C;}
</style>
<g>
	<path class="st0" d="M468.36,257.19c-0.44-0.93-0.64-1.4-0.88-1.85c-6.41-12.03-12.81-24.07-19.28-36.07
		c-0.66-1.2-0.57-1.92,0.32-2.94c10.2-11.76,20.35-23.56,30.52-35.36c0.35-0.41,0.68-0.85,0.82-1.58c-2.97,0.76-5.95,1.52-8.91,2.29
		c-12.33,3.22-24.66,6.44-36.98,9.7c-1.15,0.3-1.67-0.02-2.24-0.97c-7-11.53-14.04-23.04-21.07-34.55c-0.36-0.6-0.75-1.18-1.52-1.68
		c-0.57,3.07-1.15,6.14-1.7,9.21l-5.86,32.56c-0.21,1.18-0.51,2.34-0.6,3.52c-0.11,1.12-0.68,1.53-1.71,1.85
		c-14.53,4.5-29.04,9.04-43.56,13.58l-1.94,1.06l35.8,14.04l-1.04,0.82c-7.43,4.74-14.87,9.46-22.26,14.22
		c-0.89,0.57-1.59,0.65-2.59,0.2c-8.87-3.93-17.77-7.8-26.65-11.71c-3.99-1.76-7.58-4.09-10.37-7.46
		c-6.32-7.62-5.07-16.29,3.34-21.58c2.75-1.74,5.89-3.03,9-4.03c14.23-4.57,28.52-8.98,42.79-13.41c1.2-0.37,1.76-0.9,1.98-2.17
		c1.9-10.87,3.88-21.71,5.86-32.56c1.06-5.8,1.63-11.75,4.49-17.06c1.1-2.05,2.41-4.05,3.98-5.77c5.66-6.2,13.58-6.44,19.57-0.53
		c2.02,1.99,3.76,4.35,5.27,6.75c6.6,10.62,13.09,21.3,19.55,32c0.77,1.28,1.46,1.52,2.87,1.15c15.92-4.21,31.86-8.35,47.79-12.5
		c3.29-0.86,6.61-1.17,9.98-0.55c7.35,1.36,10.57,6.87,8.08,13.87c-1.13,3.18-3.09,5.89-5.28,8.42
		c-11.12,12.91-22.22,25.81-33.37,38.68c-0.91,1.06-0.94,1.81-0.3,2.99c6.66,12.38,13.25,24.78,19.88,37.17
		c1.58,2.97,2.79,6.04,2.83,9.45c0.08,7.75-5.66,14.09-13.47,15.21c-4.38,0.63-8.44-0.29-12.53-1.53c-9.98-3.05-19.98-6.04-29.99-9
		c-0.93-0.28-1.28-0.63-1.44-1.62c-1.15-6.94-2.41-13.87-3.62-20.81l0.05-0.82L468.36,257.19"/>
	<path class="st1" d="M448.9,358.33c-9-0.02-18.01-0.06-27.02-0.02c-1.18,0-1.86-0.34-2.52-1.34
		c-10.66-16.01-21.36-31.99-32.06-47.97c-0.34-0.51-0.7-1-1.31-1.86l-6.81,51.07h-23.58c0.28-2.26,0.52-4.45,0.81-6.64
		c2.3-17.33,4.61-34.67,6.93-52c2.2-16.57,4.4-33.13,6.64-49.69l0.81-1.38c8.11-5.21,16.26-10.38,24.39-15.56l0.71-0.2L388.54,288
		l0.29,0.2l38.59-42.19l1.03,5.83c0.91,5.27,1.79,10.54,2.77,15.79c0.2,1.06-0.08,1.72-0.8,2.45c-8.26,8.53-16.49,17.08-24.72,25.63
		l-1.11,1.2l0.75,1.18l42.62,58.97l0.95,0.96V358.33 M169.46,307.22c-0.36-1.81-0.62-4.48-1.43-6.96
		c-3.95-12.01-16.45-18.6-29.39-15.63c-14.19,3.25-24.33,14.26-25.79,28.54c-1.09,10.57,4.68,20.75,15.4,24.56
		c8.64,3.08,16.96,1.79,24.68-2.78C163.17,328.9,168.72,319.9,169.46,307.22L169.46,307.22z M107.14,351.87
		c-0.7,5.17-1.37,10.04-2.02,14.92c-0.86,6.48-1.72,12.96-2.55,19.44c-0.1,0.75-0.33,1.09-1.15,1.09
		c-6.48-0.02-12.95-0.02-19.43-0.03l-0.64-0.17c0.38-3.06,0.77-6.13,1.18-9.19c1.43-10.75,2.85-21.5,4.3-32.25
		c1.66-12.29,2.97-24.63,5.09-36.84c3.77-21.61,22.35-40.25,44.18-44.89c12.65-2.69,24.75-1.44,35.79,5.58
		c11.02,7,17.33,17.15,18.78,29.94c2.04,18.07-4.71,33.07-17.72,45.48c-8.54,8.15-18.77,13.33-30.56,15.08
		c-12.15,1.8-23.58-0.2-33.82-7.26L107.14,351.87 M96.58,249.15l-21.29,15.63c-1.13-1.76-2.15-3.52-3.34-5.15
		c-3.05-4.2-6.84-7.34-12.35-7.73c-4.58-0.32-8.5,1.18-11.62,4.51c-2.79,2.98-3.15,7.22-0.54,10.59c2.87,3.7,6.01,7.21,9.21,10.65
		c5.32,5.68,10.88,11.15,16.17,16.87c4.81,5.2,8.63,11.03,9.82,18.14c1.41,8.45-0.3,16.5-4.35,23.93
		c-7.5,13.75-19.32,21.73-34.91,24.23c-6.89,1.1-13.76,0.88-20.48-1.07c-8.92-2.59-15.12-8.35-19.12-16.5
		c-1.41-2.87-2.49-5.92-3.77-9l23.09-12.19l0.7,1.66c1.31,2.59,2.39,5.34,4.01,7.72c4.82,7.07,12.6,9.22,20.51,5.74
		c2.02-0.91,3.98-2.17,5.64-3.62c5.09-4.46,6.04-10.66,2.28-16.27c-2.17-3.22-4.88-6.11-7.51-9c-6.3-6.9-12.86-13.58-19.02-20.6
		c-4.23-4.84-7.12-10.49-8.03-16.98c-1-7.08,0.44-13.76,4.17-19.72c9.28-14.81,22.79-22.53,40.64-21.89
		c10.17,0.36,18.28,5.06,24.57,12.85C92.93,244.25,94.68,246.65,96.58,249.15 M269.02,328.7c-1.18,8.93-2.29,17.41-3.46,25.89
		l-0.77,1.18c-17.58,8.02-40.71,6.91-55.14-9.26c-7.76-8.68-11.01-18.99-10.52-30.46c1.12-26.54,23.43-49.71,50.12-52.95
		c15.59-1.89,29.27,2.26,39.82,14.2c7.19,8.14,10.52,17.86,10.03,28.58c-0.32,7.08-1.45,14.14-2.34,21.18
		c-1.27,9.98-2.66,19.96-3.99,29.94l-0.2,1.15h-21.03c0.28-2.29,0.54-4.54,0.83-6.78c1.52-11.52,3.2-23.03,4.53-34.58
		c0.83-7.18,0.31-14.32-3.02-20.98c-3.55-7.09-9.5-10.83-17.32-11.64c-16.19-1.69-31.59,9.4-35.04,25.12
		c-2.28,10.37,1.31,20.31,9.69,25.81c8.16,5.36,16.9,5.37,25.79,1.89C261.53,335.25,265.37,332.46,269.02,328.7 M357.55,265.12
		l-2.87,21.49c-4.45,0-8.81-0.02-13.16,0.01c-3.53,0.02-6.75,2.27-7.82,5.52c-0.42,1.27-0.57,2.63-0.75,3.97
		c-2.21,16.5-4.4,33.01-6.6,49.52c-0.56,4.16-1.09,8.32-1.65,12.55h-21.88c0.41-3.17,0.79-6.25,1.21-9.31
		c1.42-10.7,2.84-21.39,4.28-32.09c1.25-9.25,2.35-18.53,3.83-27.75c1.96-12.36,14.43-23.34,27.08-23.88
		C345.25,264.9,351.31,265.12,357.55,265.12"/>
	<path class="st2" d="M474.69,358.2v-9.11h-0.05l-3.62,9.11h-1.16l-3.62-9.11h-0.05v9.1h-1.83v-10.91h2.82l3.31,8.29l3.25-8.29h2.79
		v10.92H474.69L474.69,358.2z M458.64,348.74v9.46h-1.83v-9.46h-3.47v-1.46h8.75v1.46H458.64 M125.89,233.83h5.43l-1.28-8.1
		L125.89,233.83z M132.17,239.06h-9.03l-2.87,5.54h-6.39l14.1-25.98h6.17l4.8,25.98h-5.92L132.17,239.06 M164.47,223.86h-3.21
		l-1.08,5.99h3.21c1.94,0,3.49-1.25,3.49-3.62C166.87,224.66,165.89,223.86,164.47,223.86z M156.68,218.62h8.45
		c4.41,0,7.51,2.6,7.51,7.07c0,5.61-4.03,9.4-9.76,9.4h-3.65l-1.71,9.51h-5.49L156.68,218.62 M191.32,233.83h5.43l-1.28-8.1
		L191.32,233.83L191.32,233.83z M197.6,239.06h-9.02l-2.87,5.54h-6.39l14.1-25.98h6.16l4.81,25.98h-5.93L197.6,239.06
		 M233.28,243.68c-1.86,0.84-3.91,1.34-5.96,1.34c-6.97,0-11.36-5.16-11.36-11.62c0-8.25,7.06-15.21,15.43-15.21
		c2.09,0,3.98,0.5,5.53,1.34l-0.77,6.23c-1.16-1.26-3.02-2.14-5.35-2.14c-4.8,0-9.06,4.29-9.06,9.24c0,3.79,2.4,6.73,6.19,6.73
		c2.33,0,4.57-0.88,6.08-2.11L233.28,243.68 M266.9,234.14h-11.46l-1.86,10.47h-5.49l4.64-25.98h5.5l-1.86,10.28h11.46l1.86-10.28
		h5.5l-4.64,25.98h-5.5L266.9,234.14 M287.07,244.6l4.65-25.98h14.6l-0.93,5.24h-9.11l-0.92,5.04h8.36l-0.93,5.24h-8.37l-0.93,5.23
		h9.1l-0.93,5.24H287.07"/>
</g>
</svg>
